<?xml version="1.0" encoding="utf-8"?>
<svg width="105px" height="97px" viewBox="0 0 105 97" version="1.1" xmlns:xlink="http://www.w3.org/1999/xlink" xmlns="http://www.w3.org/2000/svg">
  <desc>Created with Lunacy</desc>
  <g id="Group" transform="translate(3.5 3.5)">
    <path d="M0 45C0 20.1472 21.938 0 49 0C76.062 0 98 20.1472 98 45C98 69.8528 76.062 90 49 90C21.938 90 0 69.8528 0 45Z" id="Ellipse" fill="#FAE800" stroke="#000000" stroke-width="7" />
    <path d="M0 3.06818C0 1.37367 1.85288 0 4.13851 0C6.42415 0 8.27703 1.37367 8.27703 3.06818C8.27703 4.76269 6.42415 6.13636 4.13851 6.13636C1.85288 6.13636 0 4.76269 0 3.06818Z" transform="translate(20.52704 26.93182)" id="Ellipse-2" fill="#000000" stroke="none" />
    <path d="M0 3.06818C0 1.37367 1.85287 0 4.13851 0C6.42415 0 8.27702 1.37367 8.27702 3.06818C8.27702 4.76269 6.42415 6.13636 4.13851 6.13636C1.85287 6.13636 0 4.76269 0 3.06818Z" transform="translate(68.53378 26.93182)" id="Ellipse-3" fill="#000000" stroke="none" />
    <path d="M0 4.77273C0 2.13682 10.7467 0 24.0034 0C37.2601 0 48.0068 2.13682 48.0068 4.77273C48.0068 7.40863 37.2601 9.54545 24.0034 9.54545C10.7467 9.54545 0 7.40863 0 4.77273Z" transform="translate(25.16217 58.63635)" id="Ellipse-4" fill="#000000" stroke="none" />
  </g>
</svg>